HIERARCHY
ROOT joint_Root
{
	OFFSET 0.0 0.0 0.0
	CHANNELS 6 Xposition Yposition Zposition Zrotation Xrotation Yrotation 
	JOINT Hips
	{
		OFFSET -17.1583 93.1646 452.98
		CHANNELS 6 Xposition Yposition Zposition Zrotation Xrotation Yrotation 
		JOINT Spine
		{
			OFFSET 15.7357 0.0 0.0
			CHANNELS 6 Xposition Yposition Zposition Zrotation Xrotation Yrotation 
			JOINT Chest
			{
				OFFSET 8.98455 -0.406207 0.0
				CHANNELS 6 Xposition Yposition Zposition Zrotation Xrotation Yrotation 
				JOINT Neck
				{
					OFFSET 16.3773 0.0 0.0
					CHANNELS 6 Xposition Yposition Zposition Zrotation Xrotation Yrotation 
					JOINT Head
					{
						OFFSET 6.45672 0.0 0.0
						CHANNELS 6 Xposition Yposition Zposition Zrotation Xrotation Yrotation 
						End Site
						{
							OFFSET 0.0 0.0 0.0
						}
					}
				}
				JOINT Shoulder_L
				{
					OFFSET 12.9942 -0.242716 4.98039
					CHANNELS 6 Xposition Yposition Zposition Zrotation Xrotation Yrotation 
					JOINT UpperArm_L
					{
						OFFSET 5.34809 0.0 0.0
						CHANNELS 6 Xposition Yposition Zposition Zrotation Xrotation Yrotation 
						JOINT LowerArm_L
						{
							OFFSET 24.3286 1.87007e-05 0.0
							CHANNELS 6 Xposition Yposition Zposition Zrotation Xrotation Yrotation 
							JOINT Hand_L
							{
								OFFSET 22.2916 0.0 0.0
								CHANNELS 6 Xposition Yposition Zposition Zrotation Xrotation Yrotation 
								End Site
								{
									OFFSET 0.0 0.0 0.0
								}
							}
						}
					}
				}
				JOINT Shoulder_R
				{
					OFFSET 12.9945 -0.242716 -4.98039
					CHANNELS 6 Xposition Yposition Zposition Zrotation Xrotation Yrotation 
					JOINT UpperArm_R
					{
						OFFSET -5.34813 0.0 0.0
						CHANNELS 6 Xposition Yposition Zposition Zrotation Xrotation Yrotation 
						JOINT LowerArm_R
						{
							OFFSET -24.3289 0.000322201 0.0
							CHANNELS 6 Xposition Yposition Zposition Zrotation Xrotation Yrotation 
							JOINT Hand_R
							{
								OFFSET -22.2915 -0.000108084 0.0
								CHANNELS 6 Xposition Yposition Zposition Zrotation Xrotation Yrotation 
								End Site
								{
									OFFSET 0.0 0.0 0.0
								}
							}
						}
					}
				}
			}
		}
		JOINT UpperLeg_L
		{
			OFFSET -2.19248 -6.46944 0.0
			CHANNELS 6 Xposition Yposition Zposition Zrotation Xrotation Yrotation 
			JOINT LowerLeg_L
			{
				OFFSET 39.0811 0.0 -1.23785e-05
				CHANNELS 6 Xposition Yposition Zposition Zrotation Xrotation Yrotation 
				JOINT Foot_L
				{
					OFFSET 40.9854 0.0 -1.26872e-05
					CHANNELS 6 Xposition Yposition Zposition Zrotation Xrotation Yrotation 
					JOINT Toes_L
					{
						OFFSET 11.7543 0.0 0.0
						CHANNELS 6 Xposition Yposition Zposition Zrotation Xrotation Yrotation 
						End Site
						{
							OFFSET 0.0 0.0 0.0
						}
					}
				}
			}
		}
		JOINT UpperLeg_R
		{
			OFFSET -2.19251 6.46944 0.0
			CHANNELS 6 Xposition Yposition Zposition Zrotation Xrotation Yrotation 
			JOINT LowerLeg_R
			{
				OFFSET -39.0811 -0.00228153 -0.0401928
				CHANNELS 6 Xposition Yposition Zposition Zrotation Xrotation Yrotation 
				JOINT Foot_R
				{
					OFFSET -40.9854 0.0 0.0
					CHANNELS 6 Xposition Yposition Zposition Zrotation Xrotation Yrotation 
					JOINT Toes_R
					{
						OFFSET -11.7543 0.0 0.0
						CHANNELS 6 Xposition Yposition Zposition Zrotation Xrotation Yrotation 
						End Site
						{
							OFFSET 0.0 0.0 0.0
						}
					}
				}
			}
		}
	}
}
MOTION
Frames:	6
Frame Time:	0.0333333
0.000000 0.000000 0.000000 0.000000 0.000000 -0.000000 0.990082 92.615800 2.320150 89.371800 2.651320 3.835010 15.735700 0.000005 -0.000001 127.809000 87.752600 -128.377000 8.984550 -0.406207 -0.000000 -4.203220 2.812780 -1.033320 16.377300 -0.000001 -0.000001 6.714080 0.281662 2.326150 6.456720 -0.000001 -0.000000 9.092300 0.406946 11.062500 12.994200 -0.242716 4.980390 -92.690700 7.940710 -71.212700 5.348090 -0.000007 -0.000001 -67.279600 21.507400 -3.311710 24.328600 0.000019 0.000005 9.652360 32.874600 -17.399500 22.291600 -0.000001 0.000005 -10.822200 5.196670 2.710620 12.994500 -0.242716 -4.980390 88.148800 6.644380 -74.393100 -5.348130 -0.000001 -0.000004 -72.917800 27.374500 -0.165974 -24.328900 0.000322 -0.000009 1.011230 3.485380 -16.207800 -22.291500 -0.000108 -0.000004 1.358500 5.287720 0.413626 -2.192480 -6.469440 -0.000000 -175.506000 -2.609590 2.696870 39.081100 -0.000007 -0.000012 0.042454 -0.140456 16.818000 40.985400 -0.000006 -0.000013 0.416552 12.476700 -70.433900 11.754300 -0.000000 0.000003 -0.000541 0.176282 -9.426380 -2.192510 6.469440 -0.000001 173.760000 7.895100 -174.001000 -39.081100 -0.002282 -0.040193 -0.004164 0.032499 12.991200 -40.985400 0.000008 0.000006 -9.018630 6.282120 -69.223700 -11.754300 -0.000006 -0.000006 -0.010281 0.273393 -5.465590
0.000000 0.000000 0.000000 0.000000 0.000000 -0.000000 0.913526 92.620800 2.386690 89.440100 2.470780 3.632530 15.735700 0.000005 -0.000001 129.625000 87.680700 -130.095000 8.984550 -0.406207 -0.000000 -4.183620 3.005220 -0.831031 16.377300 -0.000001 -0.000001 5.855480 0.122766 2.810550 6.456720 -0.000001 -0.000000 8.327500 0.095298 11.874900 12.994200 -0.242716 4.980390 -92.764800 8.057990 -70.990700 5.348090 -0.000007 -0.000001 -63.502100 20.859300 -6.724030 24.328600 0.000019 0.000005 11.593500 41.121000 -17.327500 22.291600 -0.000001 0.000005 -20.981200 5.313010 -0.367151 12.994500 -0.242716 -4.980390 88.134000 6.695620 -74.388400 -5.348130 -0.000001 -0.000004 -72.414100 25.921800 0.315523 -24.328900 0.000322 -0.000009 0.810862 2.654520 -17.014000 -22.291500 -0.000108 -0.000004 1.062350 5.308380 -0.165352 -2.192480 -6.469440 -0.000000 -175.458000 -2.995600 2.714720 39.081100 -0.000007 -0.000012 0.041285 -0.139073 16.534000 40.985400 -0.000006 -0.000013 0.365478 12.725700 -70.341300 11.754300 -0.000000 0.000003 -0.000505 0.175735 -9.448640 -2.192510 6.469440 -0.000001 173.698000 8.059700 -174.235000 -39.081100 -0.002282 -0.040193 -0.003528 0.029530 13.081400 -40.985400 0.000008 0.000006 -9.100390 6.655580 -69.217500 -11.754300 -0.000006 -0.000006 -0.010393 0.274223 -5.431640
0.000000 0.000000 0.000000 0.000000 0.000000 -0.000000 0.840195 92.704500 2.366930 89.519300 2.344790 2.885930 15.735700 0.000005 -0.000001 131.836000 87.823800 -131.996000 8.984550 -0.406207 -0.000000 -4.522230 2.917740 -0.204513 16.377300 -0.000001 -0.000001 4.765510 0.101380 2.996920 6.456720 -0.000001 -0.000000 7.116270 -0.037028 12.228900 12.994200 -0.242716 4.980390 -92.577600 7.420560 -70.783000 5.348090 -0.000007 -0.000001 -59.773200 14.740500 -10.755300 24.328600 0.000019 0.000005 8.937140 43.190100 -12.939600 22.291600 -0.000001 0.000005 -29.907500 5.271560 0.906884 12.994500 -0.242716 -4.980390 88.126100 6.627950 -74.174100 -5.348130 -0.000001 -0.000004 -71.297100 23.677100 0.277114 -24.328900 0.000322 -0.000009 0.788868 2.656640 -16.567700 -22.291500 -0.000108 -0.000004 0.720238 5.348070 -1.320540 -2.192480 -6.469440 -0.000000 -175.500000 -3.312830 2.408630 39.081100 -0.000007 -0.000012 0.041116 -0.146507 15.676500 40.985400 -0.000006 -0.000013 0.238674 12.880600 -70.086900 11.754300 -0.000000 0.000003 -0.000607 0.177282 -9.385760 -2.192510 6.469440 -0.000001 173.607000 8.407010 -174.728000 -39.081100 -0.002282 -0.040193 -0.006277 0.043667 12.413400 -40.985400 0.000008 0.000006 -9.901570 7.102620 -68.462200 -11.754300 -0.000006 -0.000006 -0.010593 0.275681 -5.371980
0.000000 0.000000 0.000000 0.000000 0.000000 -0.000000 0.799408 92.899600 2.235140 89.402400 2.175290 1.604920 15.735700 0.000005 -0.000001 133.466000 88.225000 -132.973000 8.984550 -0.406207 -0.000000 -5.201980 2.383670 1.095470 16.377300 -0.000001 -0.000001 3.334360 0.354847 3.027000 6.456720 -0.000001 -0.000000 5.542290 0.284683 11.792100 12.994200 -0.242716 4.980390 -92.280800 6.465770 -70.521500 5.348090 -0.000007 -0.000001 -56.385100 3.055020 -14.614500 24.328600 0.000019 0.000005 4.268060 42.969900 -6.248160 22.291600 -0.000001 0.000005 -29.988400 5.125670 4.485440 12.994500 -0.242716 -4.980390 88.221400 6.146160 -73.825900 -5.348130 -0.000001 -0.000004 -69.759500 20.832200 -0.343120 -24.328900 0.000322 -0.000009 0.876780 3.206870 -15.319400 -22.291500 -0.000108 -0.000004 1.070960 5.340450 -1.097430 -2.192480 -6.469440 -0.000000 -175.352000 -4.061480 1.912060 39.081100 -0.000007 -0.000012 0.039382 -0.158002 13.995900 40.985400 -0.000006 -0.000013 0.055879 13.361900 -69.494700 11.754300 -0.000000 0.000003 -0.000572 0.176759 -9.407010 -2.192510 6.469440 -0.000001 173.899000 8.267250 -175.933000 -39.081100 -0.002282 -0.040193 -0.003289 0.031907 11.730500 -40.985400 0.000008 0.000006 -10.806200 7.055930 -67.221500 -11.754300 -0.000006 -0.000006 -0.009845 0.270143 -5.598500
0.000000 0.000000 0.000000 0.000000 0.000000 -0.000000 0.789508 93.188700 1.970170 89.142600 1.926500 -0.132763 15.735700 0.000005 -0.000001 133.753000 88.766600 -132.418000 8.984550 -0.406207 -0.000000 -6.001980 1.543190 2.753670 16.377300 -0.000001 -0.000001 1.338720 0.736677 3.153550 6.456720 -0.000001 -0.000000 3.552310 1.054870 11.179000 12.994200 -0.242716 4.980390 -91.954600 5.489830 -70.367800 5.348090 -0.000007 -0.000001 -51.523300 -7.511430 -17.223500 24.328600 0.000019 0.000005 2.626960 42.791900 -3.863710 22.291600 -0.000001 0.000005 -23.347700 5.073750 5.703540 12.994500 -0.242716 -4.980390 88.401600 5.384230 -73.437900 -5.348130 -0.000001 -0.000004 -68.182200 17.086800 -1.020560 -24.328900 0.000322 -0.000009 1.034050 4.057760 -14.324600 -22.291500 -0.000108 -0.000004 2.530400 5.313760 -0.320214 -2.192480 -6.469440 -0.000000 -175.056000 -5.198220 1.269780 39.081100 -0.000007 -0.000012 0.029465 -0.144801 11.502200 40.985400 -0.000006 -0.000013 -0.736228 14.307200 -68.312800 11.754300 -0.000000 0.000003 -0.000851 0.180899 -9.238790 -2.192510 6.469440 -0.000001 174.510000 7.713700 -178.028000 -39.081100 -0.002282 -0.040193 0.005383 -0.010027 11.535400 -40.985400 0.000008 0.000006 -11.137900 6.549480 -65.865500 -11.754300 -0.000006 -0.000006 -0.008445 0.259297 -6.041860
0.000000 0.000000 0.000000 0.000000 0.000000 -0.000000 0.862634 93.499300 1.704100 88.935000 1.660370 -1.737540 15.735700 0.000005 -0.000001 126.934000 89.231300 -124.702000 8.984550 -0.406207 -0.000000 -6.546080 0.643676 4.506480 16.377300 -0.000001 -0.000001 -0.839095 1.134950 3.345310 6.456720 -0.000001 -0.000000 1.153980 1.828970 10.644400 12.994200 -0.242716 4.980390 -91.497100 4.192600 -70.328800 5.348090 -0.000007 -0.000001 -44.908600 -14.166400 -18.236300 24.328600 0.000019 0.000005 3.678490 42.943100 -5.390800 22.291600 -0.000001 0.000005 -13.891000 5.018000 6.867510 12.994500 -0.242716 -4.980390 88.608100 4.567000 -73.029200 -5.348130 -0.000001 -0.000004 -66.430900 12.986800 -1.503490 -24.328900 0.000322 -0.000009 1.093520 4.480990 -13.741800 -22.291500 -0.000108 -0.000004 4.375320 5.311380 -0.248683 -2.192480 -6.469440 -0.000000 -174.596000 -6.304810 0.717188 39.081100 -0.000007 -0.000012 -0.000522 0.003391 8.737350 40.985400 -0.000006 -0.000013 -4.498500 15.665000 -65.074700 11.754300 -0.000000 0.000003 -0.000481 0.175358 -9.463940 -2.192510 6.469440 -0.000001 174.969000 7.155420 -179.871000 -39.081100 -0.002282 -0.040193 0.012977 -0.049084 11.111700 -40.985400 0.000008 0.000006 -11.419000 5.936320 -64.443000 -11.754300 -0.000006 -0.000006 -0.007278 0.249703 -6.433640
